<mxfile host="app.diagrams.net" modified="2020-12-12T04:45:30.992Z" agent="5.0 (Windows NT 10.0; Win64; x64) AppleWebKit/537.36 (KHTML, like Gecko) Chrome/87.0.4280.88 Safari/537.36" etag="2I_FG1-l0RxFfBjuWzGx" version="14.0.1" type="github">
  <diagram id="Mxa6MCss-hAeo_ajPHBB" name="Page-1">
    <mxGraphModel dx="1422" dy="839" grid="0" gridSize="10" guides="1" tooltips="1" connect="1" arrows="1" fold="1" page="1" pageScale="1" pageWidth="1169" pageHeight="1654" math="0" shadow="0">
      <root>
        <mxCell id="0" />
        <mxCell id="1" parent="0" />
        <mxCell id="X3mFY2eEsk7PL_Rotv_B-4" style="edgeStyle=orthogonalEdgeStyle;rounded=0;orthogonalLoop=1;jettySize=auto;html=1;exitX=1;exitY=0.5;exitDx=0;exitDy=0;entryX=0;entryY=0.5;entryDx=0;entryDy=0;entryPerimeter=0;" edge="1" parent="1" source="X3mFY2eEsk7PL_Rotv_B-2" target="X3mFY2eEsk7PL_Rotv_B-7">
          <mxGeometry relative="1" as="geometry">
            <mxPoint x="376" y="49" as="targetPoint" />
          </mxGeometry>
        </mxCell>
        <mxCell id="X3mFY2eEsk7PL_Rotv_B-2" value="租户" style="shape=image;html=1;verticalAlign=top;verticalLabelPosition=bottom;labelBackgroundColor=#ffffff;imageAspect=0;aspect=fixed;image=https://cdn4.iconfinder.com/data/icons/online-shop-7/128/company-building-business-128.png" vertex="1" parent="1">
          <mxGeometry x="46" y="4" width="90" height="90" as="geometry" />
        </mxCell>
        <mxCell id="X3mFY2eEsk7PL_Rotv_B-5" value="1" style="text;html=1;strokeColor=none;fillColor=none;align=center;verticalAlign=middle;whiteSpace=wrap;rounded=0;" vertex="1" parent="1">
          <mxGeometry x="122" y="50.25" width="30" height="20" as="geometry" />
        </mxCell>
        <mxCell id="X3mFY2eEsk7PL_Rotv_B-6" value="1" style="text;html=1;strokeColor=none;fillColor=none;align=center;verticalAlign=middle;whiteSpace=wrap;rounded=0;" vertex="1" parent="1">
          <mxGeometry x="285" y="50.25" width="30" height="20" as="geometry" />
        </mxCell>
        <mxCell id="X3mFY2eEsk7PL_Rotv_B-7" value="微官网" style="verticalLabelPosition=bottom;html=1;verticalAlign=top;align=center;strokeColor=none;fillColor=#00BEF2;shape=mxgraph.azure.website_generic;pointerEvents=1;" vertex="1" parent="1">
          <mxGeometry x="315" y="27.75" width="50" height="42.5" as="geometry" />
        </mxCell>
        <mxCell id="X3mFY2eEsk7PL_Rotv_B-12" style="edgeStyle=orthogonalEdgeStyle;rounded=0;orthogonalLoop=1;jettySize=auto;html=1;exitX=1;exitY=0.5;exitDx=0;exitDy=0;entryX=0;entryY=0.5;entryDx=0;entryDy=0;" edge="1" parent="1" source="X3mFY2eEsk7PL_Rotv_B-8" target="X3mFY2eEsk7PL_Rotv_B-11">
          <mxGeometry relative="1" as="geometry" />
        </mxCell>
        <mxCell id="X3mFY2eEsk7PL_Rotv_B-8" value="租户" style="shape=image;html=1;verticalAlign=top;verticalLabelPosition=bottom;labelBackgroundColor=#ffffff;imageAspect=0;aspect=fixed;image=https://cdn4.iconfinder.com/data/icons/online-shop-7/128/company-building-business-128.png" vertex="1" parent="1">
          <mxGeometry x="15" y="128" width="70" height="70" as="geometry" />
        </mxCell>
        <mxCell id="X3mFY2eEsk7PL_Rotv_B-13" style="edgeStyle=orthogonalEdgeStyle;rounded=0;orthogonalLoop=1;jettySize=auto;html=1;exitX=1;exitY=0.5;exitDx=0;exitDy=0;" edge="1" parent="1" source="X3mFY2eEsk7PL_Rotv_B-9" target="X3mFY2eEsk7PL_Rotv_B-11">
          <mxGeometry relative="1" as="geometry" />
        </mxCell>
        <mxCell id="X3mFY2eEsk7PL_Rotv_B-9" value="租户" style="shape=image;html=1;verticalAlign=top;verticalLabelPosition=bottom;labelBackgroundColor=#ffffff;imageAspect=0;aspect=fixed;image=https://cdn4.iconfinder.com/data/icons/online-shop-7/128/company-building-business-128.png" vertex="1" parent="1">
          <mxGeometry x="15" y="228" width="70" height="70" as="geometry" />
        </mxCell>
        <mxCell id="X3mFY2eEsk7PL_Rotv_B-14" style="edgeStyle=orthogonalEdgeStyle;rounded=0;orthogonalLoop=1;jettySize=auto;html=1;exitX=1;exitY=0.5;exitDx=0;exitDy=0;entryX=0;entryY=0.5;entryDx=0;entryDy=0;" edge="1" parent="1" source="X3mFY2eEsk7PL_Rotv_B-10" target="X3mFY2eEsk7PL_Rotv_B-11">
          <mxGeometry relative="1" as="geometry" />
        </mxCell>
        <mxCell id="X3mFY2eEsk7PL_Rotv_B-10" value="租户" style="shape=image;html=1;verticalAlign=top;verticalLabelPosition=bottom;labelBackgroundColor=#ffffff;imageAspect=0;aspect=fixed;image=https://cdn4.iconfinder.com/data/icons/online-shop-7/128/company-building-business-128.png" vertex="1" parent="1">
          <mxGeometry x="15" y="328" width="70" height="70" as="geometry" />
        </mxCell>
        <mxCell id="X3mFY2eEsk7PL_Rotv_B-18" style="edgeStyle=orthogonalEdgeStyle;rounded=0;orthogonalLoop=1;jettySize=auto;html=1;exitX=1;exitY=0.5;exitDx=0;exitDy=0;" edge="1" parent="1" source="X3mFY2eEsk7PL_Rotv_B-11" target="X3mFY2eEsk7PL_Rotv_B-16">
          <mxGeometry relative="1" as="geometry" />
        </mxCell>
        <mxCell id="X3mFY2eEsk7PL_Rotv_B-19" style="edgeStyle=orthogonalEdgeStyle;rounded=0;orthogonalLoop=1;jettySize=auto;html=1;exitX=1;exitY=0.5;exitDx=0;exitDy=0;" edge="1" parent="1" source="X3mFY2eEsk7PL_Rotv_B-11" target="X3mFY2eEsk7PL_Rotv_B-17">
          <mxGeometry relative="1" as="geometry">
            <mxPoint x="425" y="238" as="targetPoint" />
          </mxGeometry>
        </mxCell>
        <mxCell id="X3mFY2eEsk7PL_Rotv_B-11" value="" style="aspect=fixed;perimeter=ellipsePerimeter;html=1;align=center;shadow=0;dashed=0;spacingTop=3;image;image=img/lib/active_directory/web_server.svg;" vertex="1" parent="1">
          <mxGeometry x="215" y="223" width="64" height="80" as="geometry" />
        </mxCell>
        <mxCell id="X3mFY2eEsk7PL_Rotv_B-15" value="beisen.zhiye.com&lt;br&gt;hnagroup.m.zhiye.com&lt;br&gt;hisense.zhiye.com&lt;br&gt;。。。" style="text;html=1;strokeColor=none;fillColor=none;align=left;verticalAlign=middle;whiteSpace=wrap;rounded=0;" vertex="1" parent="1">
          <mxGeometry x="239" y="303" width="130" height="50" as="geometry" />
        </mxCell>
        <mxCell id="X3mFY2eEsk7PL_Rotv_B-16" value="DFS" style="aspect=fixed;perimeter=ellipsePerimeter;html=1;align=center;shadow=0;dashed=0;spacingTop=3;image;image=img/lib/active_directory/generic_server.svg;" vertex="1" parent="1">
          <mxGeometry x="465" y="273" width="39.2" height="70" as="geometry" />
        </mxCell>
        <mxCell id="X3mFY2eEsk7PL_Rotv_B-17" value="SQL Server" style="aspect=fixed;perimeter=ellipsePerimeter;html=1;align=center;shadow=0;dashed=0;spacingTop=3;image;image=img/lib/active_directory/database_server.svg;" vertex="1" parent="1">
          <mxGeometry x="465" y="168" width="57.4" height="70" as="geometry" />
        </mxCell>
        <mxCell id="X3mFY2eEsk7PL_Rotv_B-20" value="&lt;span style=&quot;color: rgb(0, 0, 0); font-family: helvetica; font-size: 12px; font-style: normal; font-weight: 400; letter-spacing: normal; text-align: left; text-indent: 0px; text-transform: none; word-spacing: 0px; background-color: rgb(248, 249, 250); display: inline; float: none;&quot;&gt;hnagroup.m.zhiye.com&lt;/span&gt;" style="text;whiteSpace=wrap;html=1;" vertex="1" parent="1">
          <mxGeometry x="155" y="27.75" width="141" height="28" as="geometry" />
        </mxCell>
        <mxCell id="X3mFY2eEsk7PL_Rotv_B-30" value="运维站点" style="shape=umlLifeline;perimeter=lifelinePerimeter;whiteSpace=wrap;html=1;container=1;collapsible=0;recursiveResize=0;outlineConnect=0;align=center;fillColor=#d5e8d4;strokeColor=#82b366;" vertex="1" parent="1">
          <mxGeometry x="182" y="525" width="100" height="385" as="geometry" />
        </mxCell>
        <mxCell id="X3mFY2eEsk7PL_Rotv_B-35" value="" style="html=1;points=[];perimeter=orthogonalPerimeter;align=center;" vertex="1" parent="X3mFY2eEsk7PL_Rotv_B-30">
          <mxGeometry x="45" y="75" width="10" height="248" as="geometry" />
        </mxCell>
        <mxCell id="X3mFY2eEsk7PL_Rotv_B-38" value="" style="html=1;points=[];perimeter=orthogonalPerimeter;align=center;" vertex="1" parent="X3mFY2eEsk7PL_Rotv_B-30">
          <mxGeometry x="53" y="108" width="10" height="40" as="geometry" />
        </mxCell>
        <mxCell id="X3mFY2eEsk7PL_Rotv_B-39" value="写入SQL Server&lt;br&gt;UriMapping" style="edgeStyle=orthogonalEdgeStyle;html=1;align=left;spacingLeft=2;endArrow=block;rounded=0;entryX=1;entryY=0;" edge="1" target="X3mFY2eEsk7PL_Rotv_B-38" parent="X3mFY2eEsk7PL_Rotv_B-30">
          <mxGeometry relative="1" as="geometry">
            <mxPoint x="58" y="88" as="sourcePoint" />
            <Array as="points">
              <mxPoint x="83" y="88" />
            </Array>
          </mxGeometry>
        </mxCell>
        <mxCell id="X3mFY2eEsk7PL_Rotv_B-31" value="Recruiting.ESB" style="shape=umlLifeline;perimeter=lifelinePerimeter;whiteSpace=wrap;html=1;container=1;collapsible=0;recursiveResize=0;outlineConnect=0;align=center;fillColor=#d5e8d4;strokeColor=#82b366;" vertex="1" parent="1">
          <mxGeometry x="374" y="525" width="100" height="398" as="geometry" />
        </mxCell>
        <mxCell id="X3mFY2eEsk7PL_Rotv_B-40" value="" style="html=1;points=[];perimeter=orthogonalPerimeter;align=center;" vertex="1" parent="X3mFY2eEsk7PL_Rotv_B-31">
          <mxGeometry x="45" y="162" width="10" height="138" as="geometry" />
        </mxCell>
        <mxCell id="X3mFY2eEsk7PL_Rotv_B-43" value="" style="html=1;points=[];perimeter=orthogonalPerimeter;align=center;" vertex="1" parent="X3mFY2eEsk7PL_Rotv_B-31">
          <mxGeometry x="53" y="194" width="10" height="17" as="geometry" />
        </mxCell>
        <mxCell id="X3mFY2eEsk7PL_Rotv_B-44" value="查 UriMapping&lt;br&gt;取Uri（微官网域名）" style="edgeStyle=orthogonalEdgeStyle;html=1;align=left;spacingLeft=2;endArrow=block;rounded=0;entryX=1;entryY=0;" edge="1" target="X3mFY2eEsk7PL_Rotv_B-43" parent="X3mFY2eEsk7PL_Rotv_B-31">
          <mxGeometry relative="1" as="geometry">
            <mxPoint x="58" y="174" as="sourcePoint" />
            <Array as="points">
              <mxPoint x="83" y="174" />
            </Array>
          </mxGeometry>
        </mxCell>
        <mxCell id="X3mFY2eEsk7PL_Rotv_B-47" value="" style="html=1;points=[];perimeter=orthogonalPerimeter;align=center;" vertex="1" parent="X3mFY2eEsk7PL_Rotv_B-31">
          <mxGeometry x="53" y="241" width="10" height="21" as="geometry" />
        </mxCell>
        <mxCell id="X3mFY2eEsk7PL_Rotv_B-48" value="写入多租赁&lt;br&gt;ChanelSource" style="edgeStyle=orthogonalEdgeStyle;html=1;align=left;spacingLeft=2;endArrow=block;rounded=0;entryX=1;entryY=0;" edge="1" target="X3mFY2eEsk7PL_Rotv_B-47" parent="X3mFY2eEsk7PL_Rotv_B-31">
          <mxGeometry relative="1" as="geometry">
            <mxPoint x="58" y="221" as="sourcePoint" />
            <Array as="points">
              <mxPoint x="83" y="221" />
            </Array>
          </mxGeometry>
        </mxCell>
        <mxCell id="X3mFY2eEsk7PL_Rotv_B-32" value="" style="shape=umlLifeline;participant=umlActor;perimeter=lifelinePerimeter;whiteSpace=wrap;html=1;container=1;collapsible=0;recursiveResize=0;verticalAlign=top;spacingTop=36;outlineConnect=0;align=center;" vertex="1" parent="1">
          <mxGeometry x="34" y="525" width="20" height="376" as="geometry" />
        </mxCell>
        <mxCell id="X3mFY2eEsk7PL_Rotv_B-36" value="TenantId、PortalId、Uri" style="html=1;verticalAlign=bottom;endArrow=block;entryX=0;entryY=0;" edge="1" target="X3mFY2eEsk7PL_Rotv_B-35" parent="1" source="X3mFY2eEsk7PL_Rotv_B-32">
          <mxGeometry relative="1" as="geometry">
            <mxPoint x="157" y="600" as="sourcePoint" />
          </mxGeometry>
        </mxCell>
        <mxCell id="X3mFY2eEsk7PL_Rotv_B-37" value="" style="html=1;verticalAlign=bottom;endArrow=open;dashed=1;endSize=8;exitX=0;exitY=0.95;" edge="1" source="X3mFY2eEsk7PL_Rotv_B-35" parent="1" target="X3mFY2eEsk7PL_Rotv_B-32">
          <mxGeometry relative="1" as="geometry">
            <mxPoint x="157" y="676" as="targetPoint" />
          </mxGeometry>
        </mxCell>
        <mxCell id="X3mFY2eEsk7PL_Rotv_B-41" value="TenantId、PortalId" style="html=1;verticalAlign=bottom;endArrow=block;entryX=0;entryY=0;" edge="1" target="X3mFY2eEsk7PL_Rotv_B-40" parent="1" source="X3mFY2eEsk7PL_Rotv_B-35">
          <mxGeometry relative="1" as="geometry">
            <mxPoint x="349" y="687" as="sourcePoint" />
          </mxGeometry>
        </mxCell>
        <mxCell id="X3mFY2eEsk7PL_Rotv_B-42" value="" style="html=1;verticalAlign=bottom;endArrow=open;dashed=1;endSize=8;exitX=0;exitY=0.95;" edge="1" source="X3mFY2eEsk7PL_Rotv_B-40" parent="1" target="X3mFY2eEsk7PL_Rotv_B-35">
          <mxGeometry relative="1" as="geometry">
            <mxPoint x="349" y="763" as="targetPoint" />
          </mxGeometry>
        </mxCell>
        <mxCell id="X3mFY2eEsk7PL_Rotv_B-64" value="Beisen.RecruitmentCommon.&#xa;dbo.UriMapping" style="shape=table;startSize=30;container=1;collapsible=1;childLayout=tableLayout;fixedRows=1;rowLines=0;fontStyle=1;align=center;resizeLast=1;" vertex="1" parent="1">
          <mxGeometry x="31" y="1064" width="180" height="190" as="geometry" />
        </mxCell>
        <mxCell id="X3mFY2eEsk7PL_Rotv_B-65" value="" style="shape=partialRectangle;collapsible=0;dropTarget=0;pointerEvents=0;fillColor=none;top=0;left=0;bottom=1;right=0;points=[[0,0.5],[1,0.5]];portConstraint=eastwest;" vertex="1" parent="X3mFY2eEsk7PL_Rotv_B-64">
          <mxGeometry y="30" width="180" height="30" as="geometry" />
        </mxCell>
        <mxCell id="X3mFY2eEsk7PL_Rotv_B-66" value="PK" style="shape=partialRectangle;connectable=0;fillColor=none;top=0;left=0;bottom=0;right=0;fontStyle=1;overflow=hidden;" vertex="1" parent="X3mFY2eEsk7PL_Rotv_B-65">
          <mxGeometry width="30" height="30" as="geometry" />
        </mxCell>
        <mxCell id="X3mFY2eEsk7PL_Rotv_B-67" value="Id" style="shape=partialRectangle;connectable=0;fillColor=none;top=0;left=0;bottom=0;right=0;align=left;spacingLeft=6;fontStyle=5;overflow=hidden;" vertex="1" parent="X3mFY2eEsk7PL_Rotv_B-65">
          <mxGeometry x="30" width="150" height="30" as="geometry" />
        </mxCell>
        <mxCell id="X3mFY2eEsk7PL_Rotv_B-68" value="" style="shape=partialRectangle;collapsible=0;dropTarget=0;pointerEvents=0;fillColor=none;top=0;left=0;bottom=0;right=0;points=[[0,0.5],[1,0.5]];portConstraint=eastwest;" vertex="1" parent="X3mFY2eEsk7PL_Rotv_B-64">
          <mxGeometry y="60" width="180" height="30" as="geometry" />
        </mxCell>
        <mxCell id="X3mFY2eEsk7PL_Rotv_B-69" value="" style="shape=partialRectangle;connectable=0;fillColor=none;top=0;left=0;bottom=0;right=0;editable=1;overflow=hidden;" vertex="1" parent="X3mFY2eEsk7PL_Rotv_B-68">
          <mxGeometry width="30" height="30" as="geometry" />
        </mxCell>
        <mxCell id="X3mFY2eEsk7PL_Rotv_B-70" value="TenantId" style="shape=partialRectangle;connectable=0;fillColor=none;top=0;left=0;bottom=0;right=0;align=left;spacingLeft=6;overflow=hidden;" vertex="1" parent="X3mFY2eEsk7PL_Rotv_B-68">
          <mxGeometry x="30" width="150" height="30" as="geometry" />
        </mxCell>
        <mxCell id="X3mFY2eEsk7PL_Rotv_B-71" value="" style="shape=partialRectangle;collapsible=0;dropTarget=0;pointerEvents=0;fillColor=none;top=0;left=0;bottom=0;right=0;points=[[0,0.5],[1,0.5]];portConstraint=eastwest;" vertex="1" parent="X3mFY2eEsk7PL_Rotv_B-64">
          <mxGeometry y="90" width="180" height="30" as="geometry" />
        </mxCell>
        <mxCell id="X3mFY2eEsk7PL_Rotv_B-72" value="" style="shape=partialRectangle;connectable=0;fillColor=none;top=0;left=0;bottom=0;right=0;editable=1;overflow=hidden;" vertex="1" parent="X3mFY2eEsk7PL_Rotv_B-71">
          <mxGeometry width="30" height="30" as="geometry" />
        </mxCell>
        <mxCell id="X3mFY2eEsk7PL_Rotv_B-73" value="UserId" style="shape=partialRectangle;connectable=0;fillColor=none;top=0;left=0;bottom=0;right=0;align=left;spacingLeft=6;overflow=hidden;" vertex="1" parent="X3mFY2eEsk7PL_Rotv_B-71">
          <mxGeometry x="30" width="150" height="30" as="geometry" />
        </mxCell>
        <mxCell id="X3mFY2eEsk7PL_Rotv_B-74" value="" style="shape=partialRectangle;collapsible=0;dropTarget=0;pointerEvents=0;fillColor=none;top=0;left=0;bottom=0;right=0;points=[[0,0.5],[1,0.5]];portConstraint=eastwest;" vertex="1" parent="X3mFY2eEsk7PL_Rotv_B-64">
          <mxGeometry y="120" width="180" height="30" as="geometry" />
        </mxCell>
        <mxCell id="X3mFY2eEsk7PL_Rotv_B-75" value="" style="shape=partialRectangle;connectable=0;fillColor=none;top=0;left=0;bottom=0;right=0;editable=1;overflow=hidden;" vertex="1" parent="X3mFY2eEsk7PL_Rotv_B-74">
          <mxGeometry width="30" height="30" as="geometry" />
        </mxCell>
        <mxCell id="X3mFY2eEsk7PL_Rotv_B-76" value="PortalId" style="shape=partialRectangle;connectable=0;fillColor=none;top=0;left=0;bottom=0;right=0;align=left;spacingLeft=6;overflow=hidden;" vertex="1" parent="X3mFY2eEsk7PL_Rotv_B-74">
          <mxGeometry x="30" width="150" height="30" as="geometry" />
        </mxCell>
        <mxCell id="X3mFY2eEsk7PL_Rotv_B-77" style="shape=partialRectangle;collapsible=0;dropTarget=0;pointerEvents=0;fillColor=none;top=0;left=0;bottom=0;right=0;points=[[0,0.5],[1,0.5]];portConstraint=eastwest;" vertex="1" parent="X3mFY2eEsk7PL_Rotv_B-64">
          <mxGeometry y="150" width="180" height="30" as="geometry" />
        </mxCell>
        <mxCell id="X3mFY2eEsk7PL_Rotv_B-78" style="shape=partialRectangle;connectable=0;fillColor=none;top=0;left=0;bottom=0;right=0;editable=1;overflow=hidden;" vertex="1" parent="X3mFY2eEsk7PL_Rotv_B-77">
          <mxGeometry width="30" height="30" as="geometry" />
        </mxCell>
        <mxCell id="X3mFY2eEsk7PL_Rotv_B-79" value="Uri" style="shape=partialRectangle;connectable=0;fillColor=none;top=0;left=0;bottom=0;right=0;align=left;spacingLeft=6;overflow=hidden;" vertex="1" parent="X3mFY2eEsk7PL_Rotv_B-77">
          <mxGeometry x="30" width="150" height="30" as="geometry" />
        </mxCell>
        <mxCell id="X3mFY2eEsk7PL_Rotv_B-80" value="Recruitment.ChannelSource" style="shape=table;startSize=30;container=1;collapsible=1;childLayout=tableLayout;fixedRows=1;rowLines=0;fontStyle=1;align=center;resizeLast=1;" vertex="1" parent="1">
          <mxGeometry x="602" y="1035" width="231" height="280" as="geometry" />
        </mxCell>
        <mxCell id="X3mFY2eEsk7PL_Rotv_B-81" value="" style="shape=partialRectangle;collapsible=0;dropTarget=0;pointerEvents=0;fillColor=none;top=0;left=0;bottom=1;right=0;points=[[0,0.5],[1,0.5]];portConstraint=eastwest;" vertex="1" parent="X3mFY2eEsk7PL_Rotv_B-80">
          <mxGeometry y="30" width="231" height="30" as="geometry" />
        </mxCell>
        <mxCell id="X3mFY2eEsk7PL_Rotv_B-82" value="PK" style="shape=partialRectangle;connectable=0;fillColor=none;top=0;left=0;bottom=0;right=0;fontStyle=1;overflow=hidden;" vertex="1" parent="X3mFY2eEsk7PL_Rotv_B-81">
          <mxGeometry width="30" height="30" as="geometry" />
        </mxCell>
        <mxCell id="X3mFY2eEsk7PL_Rotv_B-83" value="Id" style="shape=partialRectangle;connectable=0;fillColor=none;top=0;left=0;bottom=0;right=0;align=left;spacingLeft=6;fontStyle=5;overflow=hidden;" vertex="1" parent="X3mFY2eEsk7PL_Rotv_B-81">
          <mxGeometry x="30" width="201" height="30" as="geometry" />
        </mxCell>
        <mxCell id="X3mFY2eEsk7PL_Rotv_B-84" value="" style="shape=partialRectangle;collapsible=0;dropTarget=0;pointerEvents=0;fillColor=none;top=0;left=0;bottom=0;right=0;points=[[0,0.5],[1,0.5]];portConstraint=eastwest;" vertex="1" parent="X3mFY2eEsk7PL_Rotv_B-80">
          <mxGeometry y="60" width="231" height="30" as="geometry" />
        </mxCell>
        <mxCell id="X3mFY2eEsk7PL_Rotv_B-85" value="" style="shape=partialRectangle;connectable=0;fillColor=none;top=0;left=0;bottom=0;right=0;editable=1;overflow=hidden;" vertex="1" parent="X3mFY2eEsk7PL_Rotv_B-84">
          <mxGeometry width="30" height="30" as="geometry" />
        </mxCell>
        <mxCell id="X3mFY2eEsk7PL_Rotv_B-86" value="TenantId" style="shape=partialRectangle;connectable=0;fillColor=none;top=0;left=0;bottom=0;right=0;align=left;spacingLeft=6;overflow=hidden;" vertex="1" parent="X3mFY2eEsk7PL_Rotv_B-84">
          <mxGeometry x="30" width="201" height="30" as="geometry" />
        </mxCell>
        <mxCell id="X3mFY2eEsk7PL_Rotv_B-87" value="" style="shape=partialRectangle;collapsible=0;dropTarget=0;pointerEvents=0;fillColor=none;top=0;left=0;bottom=0;right=0;points=[[0,0.5],[1,0.5]];portConstraint=eastwest;" vertex="1" parent="X3mFY2eEsk7PL_Rotv_B-80">
          <mxGeometry y="90" width="231" height="30" as="geometry" />
        </mxCell>
        <mxCell id="X3mFY2eEsk7PL_Rotv_B-88" value="" style="shape=partialRectangle;connectable=0;fillColor=none;top=0;left=0;bottom=0;right=0;editable=1;overflow=hidden;" vertex="1" parent="X3mFY2eEsk7PL_Rotv_B-87">
          <mxGeometry width="30" height="30" as="geometry" />
        </mxCell>
        <mxCell id="X3mFY2eEsk7PL_Rotv_B-89" value="ChannelName" style="shape=partialRectangle;connectable=0;fillColor=none;top=0;left=0;bottom=0;right=0;align=left;spacingLeft=6;overflow=hidden;" vertex="1" parent="X3mFY2eEsk7PL_Rotv_B-87">
          <mxGeometry x="30" width="201" height="30" as="geometry" />
        </mxCell>
        <mxCell id="X3mFY2eEsk7PL_Rotv_B-90" value="" style="shape=partialRectangle;collapsible=0;dropTarget=0;pointerEvents=0;fillColor=none;top=0;left=0;bottom=0;right=0;points=[[0,0.5],[1,0.5]];portConstraint=eastwest;" vertex="1" parent="X3mFY2eEsk7PL_Rotv_B-80">
          <mxGeometry y="120" width="231" height="30" as="geometry" />
        </mxCell>
        <mxCell id="X3mFY2eEsk7PL_Rotv_B-91" value="" style="shape=partialRectangle;connectable=0;fillColor=none;top=0;left=0;bottom=0;right=0;editable=1;overflow=hidden;" vertex="1" parent="X3mFY2eEsk7PL_Rotv_B-90">
          <mxGeometry width="30" height="30" as="geometry" />
        </mxCell>
        <mxCell id="X3mFY2eEsk7PL_Rotv_B-92" value="ChannelType" style="shape=partialRectangle;connectable=0;fillColor=none;top=0;left=0;bottom=0;right=0;align=left;spacingLeft=6;overflow=hidden;" vertex="1" parent="X3mFY2eEsk7PL_Rotv_B-90">
          <mxGeometry x="30" width="201" height="30" as="geometry" />
        </mxCell>
        <mxCell id="X3mFY2eEsk7PL_Rotv_B-93" style="shape=partialRectangle;collapsible=0;dropTarget=0;pointerEvents=0;fillColor=none;top=0;left=0;bottom=0;right=0;points=[[0,0.5],[1,0.5]];portConstraint=eastwest;" vertex="1" parent="X3mFY2eEsk7PL_Rotv_B-80">
          <mxGeometry y="150" width="231" height="30" as="geometry" />
        </mxCell>
        <mxCell id="X3mFY2eEsk7PL_Rotv_B-94" style="shape=partialRectangle;connectable=0;fillColor=none;top=0;left=0;bottom=0;right=0;editable=1;overflow=hidden;" vertex="1" parent="X3mFY2eEsk7PL_Rotv_B-93">
          <mxGeometry width="30" height="30" as="geometry" />
        </mxCell>
        <mxCell id="X3mFY2eEsk7PL_Rotv_B-95" value="ChannelSourceState" style="shape=partialRectangle;connectable=0;fillColor=none;top=0;left=0;bottom=0;right=0;align=left;spacingLeft=6;overflow=hidden;" vertex="1" parent="X3mFY2eEsk7PL_Rotv_B-93">
          <mxGeometry x="30" width="201" height="30" as="geometry" />
        </mxCell>
        <mxCell id="X3mFY2eEsk7PL_Rotv_B-102" style="shape=partialRectangle;collapsible=0;dropTarget=0;pointerEvents=0;fillColor=none;top=0;left=0;bottom=0;right=0;points=[[0,0.5],[1,0.5]];portConstraint=eastwest;" vertex="1" parent="X3mFY2eEsk7PL_Rotv_B-80">
          <mxGeometry y="180" width="231" height="30" as="geometry" />
        </mxCell>
        <mxCell id="X3mFY2eEsk7PL_Rotv_B-103" style="shape=partialRectangle;connectable=0;fillColor=none;top=0;left=0;bottom=0;right=0;editable=1;overflow=hidden;" vertex="1" parent="X3mFY2eEsk7PL_Rotv_B-102">
          <mxGeometry width="30" height="30" as="geometry" />
        </mxCell>
        <mxCell id="X3mFY2eEsk7PL_Rotv_B-104" value="PortalSite （网申Id）" style="shape=partialRectangle;connectable=0;fillColor=none;top=0;left=0;bottom=0;right=0;align=left;spacingLeft=6;overflow=hidden;" vertex="1" parent="X3mFY2eEsk7PL_Rotv_B-102">
          <mxGeometry x="30" width="201" height="30" as="geometry" />
        </mxCell>
        <mxCell id="X3mFY2eEsk7PL_Rotv_B-99" style="shape=partialRectangle;collapsible=0;dropTarget=0;pointerEvents=0;fillColor=none;top=0;left=0;bottom=0;right=0;points=[[0,0.5],[1,0.5]];portConstraint=eastwest;" vertex="1" parent="X3mFY2eEsk7PL_Rotv_B-80">
          <mxGeometry y="210" width="231" height="30" as="geometry" />
        </mxCell>
        <mxCell id="X3mFY2eEsk7PL_Rotv_B-100" style="shape=partialRectangle;connectable=0;fillColor=none;top=0;left=0;bottom=0;right=0;editable=1;overflow=hidden;" vertex="1" parent="X3mFY2eEsk7PL_Rotv_B-99">
          <mxGeometry width="30" height="30" as="geometry" />
        </mxCell>
        <mxCell id="X3mFY2eEsk7PL_Rotv_B-101" value="UrlAddress （网申地址）" style="shape=partialRectangle;connectable=0;fillColor=none;top=0;left=0;bottom=0;right=0;align=left;spacingLeft=6;overflow=hidden;" vertex="1" parent="X3mFY2eEsk7PL_Rotv_B-99">
          <mxGeometry x="30" width="201" height="30" as="geometry" />
        </mxCell>
        <mxCell id="X3mFY2eEsk7PL_Rotv_B-96" style="shape=partialRectangle;collapsible=0;dropTarget=0;pointerEvents=0;fillColor=none;top=0;left=0;bottom=0;right=0;points=[[0,0.5],[1,0.5]];portConstraint=eastwest;" vertex="1" parent="X3mFY2eEsk7PL_Rotv_B-80">
          <mxGeometry y="240" width="231" height="30" as="geometry" />
        </mxCell>
        <mxCell id="X3mFY2eEsk7PL_Rotv_B-97" style="shape=partialRectangle;connectable=0;fillColor=none;top=0;left=0;bottom=0;right=0;editable=1;overflow=hidden;" vertex="1" parent="X3mFY2eEsk7PL_Rotv_B-96">
          <mxGeometry width="30" height="30" as="geometry" />
        </mxCell>
        <mxCell id="X3mFY2eEsk7PL_Rotv_B-98" value="WechatUrlAddress （微官网地址）" style="shape=partialRectangle;connectable=0;fillColor=none;top=0;left=0;bottom=0;right=0;align=left;spacingLeft=6;overflow=hidden;" vertex="1" parent="X3mFY2eEsk7PL_Rotv_B-96">
          <mxGeometry x="30" width="201" height="30" as="geometry" />
        </mxCell>
        <mxCell id="X3mFY2eEsk7PL_Rotv_B-105" value="SQL Server 中&lt;br&gt;记录租户的网申、微官网域名映射" style="text;html=1;align=center;verticalAlign=middle;resizable=0;points=[];autosize=1;" vertex="1" parent="1">
          <mxGeometry x="26" y="1262" width="190" height="32" as="geometry" />
        </mxCell>
        <mxCell id="X3mFY2eEsk7PL_Rotv_B-106" value="&lt;span style=&quot;color: rgb(0 , 0 , 0) ; font-family: &amp;#34;helvetica&amp;#34; ; font-size: 12px ; font-style: normal ; font-weight: 400 ; letter-spacing: normal ; text-align: left ; text-indent: 0px ; text-transform: none ; word-spacing: 0px ; background-color: rgb(248 , 249 , 250) ; display: inline ; float: none&quot;&gt;多租赁V5中，记录该渠道的微官网地址&lt;/span&gt;" style="text;whiteSpace=wrap;html=1;" vertex="1" parent="1">
          <mxGeometry x="612" y="1324" width="224" height="28" as="geometry" />
        </mxCell>
        <mxCell id="X3mFY2eEsk7PL_Rotv_B-108" value="ChanelSource" style="shape=table;startSize=30;container=1;collapsible=1;childLayout=tableLayout;fixedRows=1;rowLines=0;fontStyle=1;align=center;resizeLast=1;" vertex="1" parent="1">
          <mxGeometry x="316" y="1064" width="218" height="165.75" as="geometry" />
        </mxCell>
        <mxCell id="X3mFY2eEsk7PL_Rotv_B-109" value="" style="shape=partialRectangle;collapsible=0;dropTarget=0;pointerEvents=0;fillColor=none;top=0;left=0;bottom=1;right=0;points=[[0,0.5],[1,0.5]];portConstraint=eastwest;" vertex="1" parent="X3mFY2eEsk7PL_Rotv_B-108">
          <mxGeometry y="30" width="218" height="30" as="geometry" />
        </mxCell>
        <mxCell id="X3mFY2eEsk7PL_Rotv_B-110" value="PK" style="shape=partialRectangle;connectable=0;fillColor=none;top=0;left=0;bottom=0;right=0;fontStyle=1;overflow=hidden;" vertex="1" parent="X3mFY2eEsk7PL_Rotv_B-109">
          <mxGeometry width="30" height="30" as="geometry" />
        </mxCell>
        <mxCell id="X3mFY2eEsk7PL_Rotv_B-111" value="ChannelId" style="shape=partialRectangle;connectable=0;fillColor=none;top=0;left=0;bottom=0;right=0;align=left;spacingLeft=6;fontStyle=5;overflow=hidden;" vertex="1" parent="X3mFY2eEsk7PL_Rotv_B-109">
          <mxGeometry x="30" width="188" height="30" as="geometry" />
        </mxCell>
        <mxCell id="X3mFY2eEsk7PL_Rotv_B-112" value="" style="shape=partialRectangle;collapsible=0;dropTarget=0;pointerEvents=0;fillColor=none;top=0;left=0;bottom=0;right=0;points=[[0,0.5],[1,0.5]];portConstraint=eastwest;" vertex="1" parent="X3mFY2eEsk7PL_Rotv_B-108">
          <mxGeometry y="60" width="218" height="36" as="geometry" />
        </mxCell>
        <mxCell id="X3mFY2eEsk7PL_Rotv_B-113" value="" style="shape=partialRectangle;connectable=0;fillColor=none;top=0;left=0;bottom=0;right=0;editable=1;overflow=hidden;" vertex="1" parent="X3mFY2eEsk7PL_Rotv_B-112">
          <mxGeometry width="30" height="36" as="geometry" />
        </mxCell>
        <mxCell id="X3mFY2eEsk7PL_Rotv_B-114" value="ChannelName" style="shape=partialRectangle;connectable=0;fillColor=none;top=0;left=0;bottom=0;right=0;align=left;spacingLeft=6;overflow=hidden;" vertex="1" parent="X3mFY2eEsk7PL_Rotv_B-112">
          <mxGeometry x="30" width="188" height="36" as="geometry" />
        </mxCell>
        <mxCell id="X3mFY2eEsk7PL_Rotv_B-115" value="" style="shape=partialRectangle;collapsible=0;dropTarget=0;pointerEvents=0;fillColor=none;top=0;left=0;bottom=0;right=0;points=[[0,0.5],[1,0.5]];portConstraint=eastwest;" vertex="1" parent="X3mFY2eEsk7PL_Rotv_B-108">
          <mxGeometry y="96" width="218" height="30" as="geometry" />
        </mxCell>
        <mxCell id="X3mFY2eEsk7PL_Rotv_B-116" value="" style="shape=partialRectangle;connectable=0;fillColor=none;top=0;left=0;bottom=0;right=0;editable=1;overflow=hidden;" vertex="1" parent="X3mFY2eEsk7PL_Rotv_B-115">
          <mxGeometry width="30" height="30" as="geometry" />
        </mxCell>
        <mxCell id="X3mFY2eEsk7PL_Rotv_B-117" value="ChannelSourceGid" style="shape=partialRectangle;connectable=0;fillColor=none;top=0;left=0;bottom=0;right=0;align=left;spacingLeft=6;overflow=hidden;" vertex="1" parent="X3mFY2eEsk7PL_Rotv_B-115">
          <mxGeometry x="30" width="188" height="30" as="geometry" />
        </mxCell>
        <mxCell id="X3mFY2eEsk7PL_Rotv_B-118" value="" style="shape=partialRectangle;collapsible=0;dropTarget=0;pointerEvents=0;fillColor=none;top=0;left=0;bottom=0;right=0;points=[[0,0.5],[1,0.5]];portConstraint=eastwest;" vertex="1" parent="X3mFY2eEsk7PL_Rotv_B-108">
          <mxGeometry y="126" width="218" height="30" as="geometry" />
        </mxCell>
        <mxCell id="X3mFY2eEsk7PL_Rotv_B-119" value="" style="shape=partialRectangle;connectable=0;fillColor=none;top=0;left=0;bottom=0;right=0;editable=1;overflow=hidden;" vertex="1" parent="X3mFY2eEsk7PL_Rotv_B-118">
          <mxGeometry width="30" height="30" as="geometry" />
        </mxCell>
        <mxCell id="X3mFY2eEsk7PL_Rotv_B-120" value="WeChatUriAddress（没有用）" style="shape=partialRectangle;connectable=0;fillColor=none;top=0;left=0;bottom=0;right=0;align=left;spacingLeft=6;overflow=hidden;" vertex="1" parent="X3mFY2eEsk7PL_Rotv_B-118">
          <mxGeometry x="30" width="188" height="30" as="geometry" />
        </mxCell>
        <mxCell id="X3mFY2eEsk7PL_Rotv_B-121" value="" style="endArrow=classic;html=1;" edge="1" parent="1" source="X3mFY2eEsk7PL_Rotv_B-115" target="X3mFY2eEsk7PL_Rotv_B-80">
          <mxGeometry width="50" height="50" relative="1" as="geometry">
            <mxPoint x="469" y="1369" as="sourcePoint" />
            <mxPoint x="519" y="1319" as="targetPoint" />
          </mxGeometry>
        </mxCell>
        <mxCell id="X3mFY2eEsk7PL_Rotv_B-122" value="SQL Server 中，渠道信息" style="text;html=1;align=center;verticalAlign=middle;resizable=0;points=[];autosize=1;" vertex="1" parent="1">
          <mxGeometry x="351" y="1247" width="148" height="18" as="geometry" />
        </mxCell>
        <mxCell id="X3mFY2eEsk7PL_Rotv_B-124" value="在透明化运维中，用户创建微官网后端流程" style="shape=note;whiteSpace=wrap;html=1;backgroundOutline=1;darkOpacity=0.05;align=center;size=17;fillColor=#fff2cc;strokeColor=#d6b656;" vertex="1" parent="1">
          <mxGeometry x="20" y="483" width="273" height="33" as="geometry" />
        </mxCell>
        <mxCell id="X3mFY2eEsk7PL_Rotv_B-125" value="相关ER" style="shape=note;whiteSpace=wrap;html=1;backgroundOutline=1;darkOpacity=0.05;align=center;size=17;fillColor=#fff2cc;strokeColor=#d6b656;" vertex="1" parent="1">
          <mxGeometry x="29" y="987" width="273" height="33" as="geometry" />
        </mxCell>
      </root>
    </mxGraphModel>
  </diagram>
</mxfile>
